<svg width="434" height="221" viewBox="0 0 434 221" fill="none" xmlns="http://www.w3.org/2000/svg">
    <mask id="mask0_2027_300" style="mask-type:luminance" maskUnits="userSpaceOnUse" x="342" y="152"
        width="92" height="69">
        <path d="M342.667 152.828H433.333V220.583H342.667V152.828Z" fill="white" />
    </mask>
    <g mask="url(#mask0_2027_300)">
        <path
            d="M372.172 152.901V205.625L343.87 220.567H432.688L414.208 186.739L432.688 152.901H372.172Z"
            fill="black" />
    </g>
    <path d="M335.568 206.198V218.37L358.635 206.198H335.568Z" fill="black" />
    <mask id="mask1_2027_300" style="mask-type:luminance" maskUnits="userSpaceOnUse" x="65" y="132"
        width="302" height="69">
        <path d="M65.3334 132.583H366.667V200.828H65.3334V132.583Z" fill="white" />
    </mask>
    <g mask="url(#mask1_2027_300)">
        <path d="M366.339 132.609H66.4115V200.38H366.339V132.609Z" fill="black" />
    </g>
    <mask id="mask2_2027_300" style="mask-type:luminance" maskUnits="userSpaceOnUse" x="0" y="152"
        width="91" height="69">
        <path d="M0 152.828H90.6667V220.583H0V152.828Z" fill="white" />
    </mask>
    <g mask="url(#mask2_2027_300)">
        <path
            d="M60.5833 206.198V152.901L0.953125 152.916L19.4323 186.739L0.96875 220.583L89.75 220.557L60.5833 206.198Z"
            fill="black" />
    </g>
    <path d="M98.1458 218.364L98.2344 206.198H74.7188L98.1458 218.364Z" fill="black" />
    <path
        d="M90.77 174.443C90.4211 174.412 90.1242 174.303 89.8742 174.11C89.6346 173.912 89.4888 173.688 89.4367 173.423C89.4054 173.147 89.3586 172.605 89.2909 171.798C89.2336 170.996 89.1763 170.079 89.1242 169.048C89.0669 168.022 89.0096 167.006 88.9575 166.006C88.9159 165.006 88.8742 164.131 88.8325 163.381C88.7909 162.621 88.77 162.126 88.77 161.902V159.402C88.77 158.568 88.8013 157.876 88.8742 157.318C88.9575 156.766 89.2909 156.433 89.8742 156.318C90.3013 156.266 90.6242 156.308 90.8325 156.443C91.0409 156.568 91.2127 156.735 91.3534 156.943C91.4471 157.1 91.6034 157.173 91.8117 157.173C92.1971 157.121 92.6034 157.089 93.02 157.089C93.4367 157.079 93.8117 157.068 94.145 157.068C96.145 157.167 97.77 157.751 99.02 158.818C100.27 159.891 100.895 161.214 100.895 162.798C100.895 163.881 100.53 164.897 99.8117 165.839C99.1034 166.772 98.1086 167.563 96.8325 168.214C95.5669 168.855 94.0877 169.318 92.395 169.61C92.1294 169.641 92.0096 169.772 92.0409 170.006C92.0669 170.371 92.1034 170.829 92.145 171.381C92.1867 171.938 92.2336 172.438 92.2909 172.881C92.2909 173.063 92.2752 173.193 92.2492 173.277C92.2179 173.376 92.1971 173.454 92.1867 173.506C92.1711 173.563 92.1502 173.631 92.1242 173.714C92.0252 173.933 91.8429 174.115 91.5825 174.256C91.3169 174.407 91.0461 174.469 90.77 174.443ZM91.8117 166.923C91.8377 167.188 91.9992 167.292 92.2909 167.235C93.2909 167.027 94.2388 166.73 95.145 166.339C96.0461 165.954 96.7752 165.459 97.3325 164.86C97.8846 164.266 98.1659 163.579 98.1659 162.798C98.1659 161.787 97.7336 160.954 96.8742 160.298C96.0252 159.647 94.9211 159.318 93.5617 159.318C93.3117 159.318 93.0409 159.334 92.7492 159.36C92.4575 159.391 92.1711 159.433 91.895 159.485C91.7127 159.501 91.5929 159.626 91.5409 159.86C91.5096 160.459 91.4992 161.225 91.4992 162.152C91.4992 163.068 91.5252 163.975 91.5825 164.86C91.6502 165.735 91.7284 166.423 91.8117 166.923Z"
        fill="white" />
    <path
        d="M110.32 174.568C109.33 174.568 108.616 174.433 108.174 174.173C106.642 173.423 105.851 171.876 105.799 169.527C105.726 168.152 105.695 166.818 105.695 165.527C105.695 164.542 105.679 163.751 105.653 163.152C105.622 162.542 105.59 162.022 105.549 161.589C105.507 161.147 105.486 160.714 105.486 160.298V159.506C105.455 159.381 105.445 159.251 105.445 159.11C105.445 158.975 105.445 158.834 105.445 158.693C105.413 158.068 105.726 157.641 106.382 157.402C106.825 157.251 107.486 157.121 108.361 157.006C109.247 156.881 110.163 156.787 111.111 156.714C112.07 156.631 112.83 156.589 113.403 156.589C113.997 156.589 114.476 156.73 114.84 157.006C115.2 157.272 115.361 157.61 115.32 158.027C115.288 158.292 115.137 158.506 114.861 158.673C114.596 158.839 114.278 158.917 113.903 158.902C113.445 158.876 112.976 158.881 112.507 158.923C112.033 158.954 111.57 158.996 111.111 159.048C110.736 159.079 110.361 159.121 109.986 159.173C109.611 159.214 109.111 159.318 108.486 159.485C108.247 159.501 108.132 159.641 108.132 159.902C108.184 160.443 108.236 161.183 108.278 162.11C108.32 163.027 108.351 163.787 108.382 164.381C108.424 164.673 108.559 164.792 108.799 164.735C109.007 164.683 109.241 164.647 109.507 164.631C109.767 164.605 110.028 164.579 110.278 164.548C110.653 164.496 111.012 164.443 111.361 164.402C111.705 164.35 112.012 164.308 112.278 164.277C112.872 164.193 113.346 164.246 113.695 164.423C114.038 164.605 114.215 164.902 114.215 165.318C114.215 165.792 113.903 166.131 113.278 166.339C112.861 166.438 112.346 166.542 111.736 166.652C111.137 166.751 110.533 166.855 109.924 166.964L108.757 167.152C108.507 167.209 108.392 167.355 108.424 167.589L108.486 168.173C108.538 168.897 108.611 169.579 108.695 170.214C108.788 170.855 108.945 171.355 109.153 171.714C109.387 172.079 109.616 172.272 109.84 172.298C110.059 172.329 110.278 172.339 110.486 172.339C110.762 172.339 111.028 172.318 111.278 172.277C111.528 172.225 111.804 172.126 112.111 171.985C112.762 171.709 113.346 171.641 113.861 171.777C114.387 171.917 114.653 172.251 114.653 172.777C114.653 173.027 114.517 173.287 114.257 173.548C113.866 173.839 113.309 174.079 112.59 174.277C111.882 174.47 111.122 174.568 110.32 174.568Z"
        fill="white" />
    <path
        d="M125.994 174.631C125.254 174.631 124.796 174.298 124.619 173.631C124.587 173.548 124.577 173.443 124.577 173.318C124.577 172.667 124.546 171.902 124.494 171.027C124.452 170.141 124.4 169.214 124.348 168.256C124.291 167.131 124.244 166.022 124.202 164.923C124.171 163.813 124.16 162.881 124.16 162.131V161.068C124.16 160.766 124.015 160.641 123.723 160.693C122.556 160.818 121.775 160.912 121.39 160.964C120.999 161.006 120.765 161.027 120.681 161.027C119.983 161.027 119.52 160.772 119.285 160.256C119.202 160.131 119.16 160.001 119.16 159.86C119.16 159.402 119.421 159.027 119.952 158.735C120.16 158.641 120.374 158.568 120.598 158.527C120.832 158.485 121.056 158.454 121.265 158.423L124.66 158.068L126.41 157.839C126.619 157.813 127.02 157.756 127.619 157.673C128.212 157.579 128.837 157.496 129.494 157.423C130.145 157.339 130.64 157.287 130.973 157.256C132.098 157.173 132.66 157.548 132.66 158.381C132.66 158.98 132.291 159.35 131.556 159.485C130.858 159.584 130.16 159.693 129.452 159.818C128.754 159.933 128.056 160.048 127.348 160.173C127.108 160.204 126.994 160.334 126.994 160.568V162.485C126.994 163.11 127.015 163.871 127.056 164.756C127.098 165.631 127.145 166.563 127.202 167.548C127.254 168.537 127.296 169.48 127.327 170.381C127.369 171.272 127.39 172.027 127.39 172.652C127.39 172.709 127.395 172.756 127.41 172.798C127.421 172.829 127.431 172.871 127.431 172.923C127.431 172.954 127.431 172.975 127.431 172.985C127.431 173.001 127.431 173.022 127.431 173.048C127.431 173.147 127.421 173.246 127.41 173.339C127.395 173.423 127.374 173.537 127.348 173.673C127.275 174.308 126.827 174.631 125.994 174.631Z"
        fill="white" />
    <path
        d="M155.953 174.089C153.562 173.99 151.708 173.308 150.39 172.027C149.083 170.751 148.432 168.996 148.432 166.756C148.432 165.23 148.791 163.834 149.515 162.568C150.249 161.292 151.234 160.266 152.473 159.485C153.723 158.693 155.104 158.292 156.619 158.277C157.213 158.251 157.838 158.36 158.494 158.61C159.161 158.85 159.729 159.147 160.203 159.506C160.671 159.855 160.911 160.209 160.911 160.568C160.911 160.86 160.765 161.126 160.473 161.36C160.192 161.584 159.88 161.693 159.536 161.693C159.354 161.693 159.192 161.673 159.057 161.631C158.916 161.579 158.776 161.522 158.64 161.464C158.484 161.381 158.354 161.308 158.244 161.235C158.145 161.152 158.02 161.063 157.869 160.964C157.604 160.798 157.234 160.714 156.765 160.714C155.765 160.714 154.854 160.98 154.036 161.506C153.213 162.022 152.557 162.746 152.057 163.673C151.567 164.589 151.296 165.631 151.244 166.798C151.244 168.371 151.645 169.6 152.453 170.485C153.255 171.36 154.348 171.798 155.723 171.798C156.89 171.798 157.859 171.423 158.64 170.673C158.807 170.537 158.937 170.417 159.036 170.318C159.13 170.209 159.208 170.131 159.265 170.089C159.401 169.897 159.557 169.751 159.723 169.652C159.89 169.542 160.109 169.485 160.39 169.485C160.765 169.485 161.078 169.589 161.328 169.798C161.588 170.006 161.723 170.287 161.723 170.631C161.723 171.173 161.411 171.714 160.786 172.256C160.161 172.787 159.395 173.23 158.494 173.589C157.604 173.949 156.755 174.115 155.953 174.089Z"
        fill="white" />
    <path
        d="M173.562 174.485C172.13 174.485 170.88 174.152 169.812 173.485C168.755 172.808 167.927 171.86 167.333 170.652C166.734 169.443 166.437 168.048 166.437 166.464C166.437 164.537 166.859 162.792 167.708 161.235C168.552 159.683 169.677 158.548 171.083 157.839C171.677 157.506 172.271 157.329 172.854 157.298C173.437 157.272 174.146 157.287 174.979 157.339C177.396 157.438 179.208 158.298 180.416 159.923C181.625 161.548 182.083 163.73 181.791 166.464C181.666 167.881 181.338 169.188 180.812 170.381C180.297 171.563 179.469 172.516 178.333 173.235C177.208 173.954 175.614 174.371 173.562 174.485ZM173.687 172.068C175.63 171.985 176.989 171.423 177.771 170.381C178.562 169.329 178.958 167.667 178.958 165.402C178.958 163.527 178.552 162.105 177.75 161.131C176.958 160.162 175.823 159.673 174.354 159.673C173.255 159.673 172.338 160.022 171.604 160.714C170.864 161.397 170.302 162.266 169.916 163.318C169.541 164.376 169.354 165.459 169.354 166.568C169.354 168.235 169.729 169.568 170.479 170.568C171.239 171.568 172.312 172.068 173.687 172.068Z"
        fill="white" />
    <path
        d="M201.633 156.756C201.659 157.006 201.68 157.266 201.696 157.527C201.706 157.792 201.701 158.042 201.675 158.277C201.534 159.777 201.446 161.272 201.404 162.756C201.373 164.23 201.362 165.605 201.362 166.881V169.527C201.362 169.902 201.347 170.35 201.321 170.86C201.289 171.376 201.258 171.871 201.216 172.339C201.175 172.813 201.118 173.167 201.05 173.402C200.758 174.068 200.284 174.402 199.633 174.402C199.201 174.402 198.789 174.246 198.404 173.943C197.696 173.266 196.847 172.329 195.862 171.131C194.972 169.996 194.164 168.818 193.446 167.61C192.737 166.402 192.05 165.204 191.383 164.006C191.352 163.923 191.321 163.855 191.279 163.798C191.237 163.73 191.196 163.652 191.154 163.568C191.039 163.417 190.93 163.35 190.821 163.36C190.722 163.376 190.675 163.485 190.675 163.693V165.089C190.675 166.048 190.675 166.871 190.675 167.548C190.675 168.23 190.664 168.917 190.654 169.61C190.638 170.292 190.602 171.126 190.55 172.11C190.534 172.527 190.331 172.86 189.946 173.11C189.68 173.277 189.414 173.36 189.154 173.36C188.581 173.36 188.206 173.126 188.029 172.652C187.972 172.443 187.93 172.235 187.904 172.027C187.873 171.818 187.862 171.537 187.862 171.173C187.914 170.162 187.956 169.131 187.987 168.089C188.013 167.048 188.029 166.006 188.029 164.964C188.029 164.756 188.019 164.423 188.008 163.964C187.993 163.496 187.972 162.996 187.946 162.464C187.914 161.923 187.894 161.459 187.883 161.068C187.868 160.683 187.862 160.475 187.862 160.443C187.862 159.876 187.914 159.423 188.029 159.089C188.097 158.73 188.284 158.438 188.591 158.214C188.894 157.996 189.248 157.881 189.654 157.881C189.946 157.881 190.248 157.954 190.571 158.089C190.904 158.214 191.133 158.381 191.258 158.589C191.576 159.079 191.883 159.548 192.175 160.006C192.477 160.464 192.758 160.912 193.008 161.339L194.383 163.693C194.977 164.735 195.623 165.766 196.321 166.777C197.029 167.777 197.623 168.662 198.112 169.423C198.222 169.579 198.321 169.631 198.404 169.589C198.498 169.548 198.56 169.438 198.591 169.256C198.618 168.563 198.633 167.959 198.633 167.443C198.633 166.917 198.633 166.417 198.633 165.943C198.633 165.318 198.638 164.693 198.654 164.068C198.664 163.443 198.685 162.829 198.716 162.214C198.727 161.772 198.743 161.334 198.758 160.902C198.769 160.475 198.779 160.048 198.779 159.631C198.805 159.246 198.826 158.86 198.841 158.485C198.852 158.11 198.862 157.73 198.862 157.339C198.862 157.204 198.883 157.048 198.925 156.881C198.977 156.714 199.008 156.621 199.008 156.589C199.216 155.996 199.675 155.693 200.383 155.693C200.716 155.693 200.998 155.792 201.237 155.985C201.472 156.183 201.602 156.438 201.633 156.756Z"
        fill="white" />
    <path
        d="M213.401 174.631C212.661 174.631 212.203 174.298 212.026 173.631C211.995 173.548 211.984 173.443 211.984 173.318C211.984 172.667 211.953 171.902 211.901 171.027C211.859 170.141 211.807 169.214 211.755 168.256C211.698 167.131 211.651 166.022 211.609 164.923C211.578 163.813 211.568 162.881 211.568 162.131V161.068C211.568 160.766 211.422 160.641 211.13 160.693C209.963 160.818 209.182 160.912 208.797 160.964C208.406 161.006 208.172 161.027 208.088 161.027C207.39 161.027 206.927 160.772 206.693 160.256C206.609 160.131 206.568 160.001 206.568 159.86C206.568 159.402 206.828 159.027 207.359 158.735C207.568 158.641 207.781 158.568 208.005 158.527C208.239 158.485 208.463 158.454 208.672 158.423L212.068 158.068L213.818 157.839C214.026 157.813 214.427 157.756 215.026 157.673C215.62 157.579 216.245 157.496 216.901 157.423C217.552 157.339 218.047 157.287 218.38 157.256C219.505 157.173 220.068 157.548 220.068 158.381C220.068 158.98 219.698 159.35 218.963 159.485C218.265 159.584 217.568 159.693 216.859 159.818C216.161 159.933 215.463 160.048 214.755 160.173C214.515 160.204 214.401 160.334 214.401 160.568V162.485C214.401 163.11 214.422 163.871 214.463 164.756C214.505 165.631 214.552 166.563 214.609 167.548C214.661 168.537 214.703 169.48 214.734 170.381C214.776 171.272 214.797 172.027 214.797 172.652C214.797 172.709 214.802 172.756 214.818 172.798C214.828 172.829 214.838 172.871 214.838 172.923C214.838 172.954 214.838 172.975 214.838 172.985C214.838 173.001 214.838 173.022 214.838 173.048C214.838 173.147 214.828 173.246 214.818 173.339C214.802 173.423 214.781 173.537 214.755 173.673C214.682 174.308 214.234 174.631 213.401 174.631Z"
        fill="white" />
    <path
        d="M226.961 175.152C226.596 175.178 226.273 175.089 225.982 174.881C225.69 174.673 225.523 174.391 225.482 174.048C225.45 173.563 225.419 173.084 225.377 172.61C225.336 172.126 225.299 171.647 225.273 171.173C225.2 169.798 225.169 168.459 225.169 167.152C225.169 166.735 225.169 166.334 225.169 165.943C225.169 165.558 225.179 165.152 225.211 164.735V162.36C225.179 161.766 225.159 161.167 225.148 160.568C225.133 159.975 225.096 159.391 225.044 158.818C225.013 158.61 225.008 158.397 225.023 158.173C225.034 157.954 225.133 157.709 225.315 157.443C225.45 157.292 225.596 157.193 225.752 157.152C225.903 157.1 226.07 157.058 226.252 157.027L227.273 156.902C227.633 156.85 228.008 156.813 228.398 156.798C228.784 156.772 229.174 156.756 229.565 156.756C230.107 156.756 230.612 156.792 231.086 156.86C232.804 157.209 234.096 157.714 234.961 158.381C235.836 159.037 236.336 159.933 236.461 161.068C236.487 161.183 236.502 161.355 236.502 161.589C236.502 162.464 236.242 163.287 235.732 164.048C235.232 164.798 234.565 165.355 233.732 165.714C233.69 165.746 233.617 165.766 233.523 165.777C233.44 165.792 233.357 165.818 233.273 165.86C233.273 165.86 233.237 165.912 233.169 166.006C233.112 166.105 233.117 166.214 233.19 166.339C233.242 166.438 233.32 166.558 233.419 166.693C233.528 166.818 233.633 166.959 233.732 167.11C233.784 167.167 233.841 167.246 233.898 167.339C233.966 167.423 234.028 167.496 234.086 167.548C234.346 167.912 234.7 168.376 235.148 168.943C235.591 169.516 236.028 170.084 236.461 170.652C236.903 171.209 237.258 171.641 237.523 171.943L237.607 172.068C237.607 172.068 237.633 172.121 237.69 172.214C237.758 172.298 237.804 172.397 237.836 172.506C237.903 172.662 237.94 172.787 237.94 172.881C237.94 173.147 237.773 173.423 237.44 173.714C237.258 173.865 237.002 173.943 236.669 173.943C236.487 173.943 236.304 173.902 236.127 173.818C235.961 173.725 235.815 173.621 235.69 173.506C235.45 173.272 235.242 173.037 235.065 172.798C234.883 172.548 234.7 172.308 234.523 172.068C234.049 171.558 233.513 170.897 232.919 170.089C232.32 169.287 231.763 168.516 231.252 167.777C231.138 167.6 231.013 167.423 230.877 167.256C230.752 167.089 230.627 166.923 230.502 166.756C230.403 166.605 230.325 166.527 230.273 166.527C230.242 166.527 230.211 166.537 230.169 166.548C230.127 166.563 230.086 166.568 230.044 166.568C230.013 166.568 229.987 166.568 229.961 166.568C229.929 166.568 229.888 166.568 229.836 166.568C229.711 166.568 229.575 166.568 229.44 166.568C229.315 166.568 229.19 166.558 229.065 166.527C228.924 166.527 228.784 166.522 228.648 166.506C228.508 166.496 228.377 166.485 228.252 166.485H228.127C228.044 166.485 227.971 166.496 227.919 166.506C227.877 166.522 227.857 166.527 227.857 166.527C227.825 166.527 227.815 166.527 227.815 166.527C227.815 166.527 227.799 166.527 227.773 166.527V169.11C227.825 169.917 227.877 170.693 227.919 171.443C227.971 172.193 228.013 172.766 228.044 173.152C228.07 173.266 228.091 173.391 228.107 173.527C228.117 173.652 228.127 173.777 228.127 173.902C228.127 174.678 227.737 175.094 226.961 175.152ZM229.607 164.339C230.117 164.339 230.617 164.287 231.107 164.173C231.591 164.063 232.075 163.923 232.565 163.756C233.008 163.631 233.362 163.313 233.627 162.798C233.903 162.272 234.023 161.735 233.982 161.193C233.898 160.683 233.69 160.318 233.357 160.11C233.034 159.902 232.648 159.667 232.19 159.402C231.398 159.042 230.549 158.86 229.648 158.86C229.383 158.86 229.096 158.876 228.794 158.902C228.502 158.917 228.216 158.954 227.94 159.006C227.7 159.006 227.586 159.141 227.586 159.402L227.69 161.589L227.815 163.798C227.815 164.006 227.929 164.141 228.169 164.193L228.586 164.277C228.752 164.308 228.919 164.329 229.086 164.339C229.252 164.339 229.424 164.339 229.607 164.339Z"
        fill="white" />
    <path
        d="M245.745 157.923C245.922 158.381 246.016 158.818 246.016 159.235V172.527C246.016 172.709 246.005 172.881 245.995 173.048C245.979 173.204 245.912 173.339 245.787 173.464C245.495 173.813 245.11 173.985 244.641 173.985C244.308 173.985 244 173.886 243.724 173.693C243.459 173.501 243.297 173.272 243.245 173.006C243.214 172.855 243.203 172.605 243.203 172.256L243.328 163.652C243.328 163.308 243.334 162.975 243.349 162.652C243.36 162.334 243.37 162.001 243.37 161.652C243.38 161.318 243.391 160.996 243.391 160.673C243.391 160.339 243.391 160.022 243.391 159.714V159.277C243.375 159.1 243.354 158.938 243.328 158.798C243.297 158.662 243.287 158.496 243.287 158.298V158.277C243.287 157.933 243.401 157.662 243.641 157.464C243.875 157.272 244.162 157.173 244.495 157.173C245.089 157.173 245.505 157.423 245.745 157.923Z"
        fill="white" />
    <path
        d="M256.81 174.756C256.445 174.756 256.07 174.746 255.685 174.735C255.31 174.719 254.94 174.699 254.581 174.673C254.19 174.641 253.841 174.516 253.539 174.298C253.247 174.089 253.101 173.839 253.101 173.548C253.101 173.188 253.148 172.954 253.247 172.839C253.357 172.714 253.461 172.589 253.56 172.464C253.669 172.329 253.726 172.063 253.726 171.673C253.726 169.829 253.716 168.355 253.706 167.256C253.69 166.147 253.654 165.173 253.601 164.339C253.586 164.037 253.581 163.542 253.581 162.86C253.581 162.167 253.581 161.568 253.581 161.068C253.591 160.501 253.476 160.1 253.226 159.86C252.862 159.443 252.685 159.126 252.685 158.902C252.685 158.433 252.987 158.089 253.601 157.881C254.935 157.381 256.258 157.131 257.581 157.131C259.69 157.131 261.341 157.693 262.539 158.818C263.372 159.652 263.789 160.579 263.789 161.589C263.789 162.423 263.591 163.152 263.206 163.777C262.815 164.391 262.174 164.943 261.289 165.443C260.997 165.6 260.997 165.766 261.289 165.943C262.331 166.443 263.185 167.089 263.851 167.881C264.529 168.673 264.872 169.459 264.872 170.235C264.872 171.584 264.128 172.673 262.643 173.506C261.169 174.339 259.226 174.756 256.81 174.756ZM256.414 164.193C256.414 164.485 256.56 164.605 256.851 164.548C258.31 164.313 259.351 163.954 259.976 163.464C260.612 162.964 260.935 162.298 260.935 161.464C260.935 160.897 260.633 160.433 260.039 160.068C259.706 159.86 259.372 159.714 259.039 159.631C258.716 159.537 258.336 159.485 257.893 159.485C257.529 159.485 257.154 159.522 256.768 159.589C256.529 159.621 256.414 159.766 256.414 160.027V164.193ZM256.685 171.985C256.737 172.225 256.883 172.339 257.122 172.339C258.799 172.287 260.044 172.1 260.851 171.777C261.654 171.459 262.06 170.943 262.06 170.235C262.06 169.735 261.799 169.256 261.289 168.798C260.773 168.329 260.122 167.943 259.331 167.652C258.549 167.35 257.758 167.193 256.956 167.193C256.706 167.193 256.581 167.272 256.581 167.423C256.549 167.772 256.539 168.225 256.539 168.777C256.539 169.334 256.549 169.902 256.581 170.485C256.622 171.068 256.654 171.568 256.685 171.985Z"
        fill="white" />
    <path
        d="M276.184 173.277C274.402 173.277 273.038 172.548 272.08 171.089C271.606 170.371 271.277 169.641 271.1 168.902C270.85 167.818 270.626 166.777 270.434 165.777C270.251 164.777 270.163 163.808 270.163 162.86C270.163 162.652 270.163 162.454 270.163 162.256C270.163 162.063 270.173 161.876 270.205 161.693C270.231 161.516 270.236 161.339 270.225 161.173C270.21 161.006 270.205 160.834 270.205 160.652C270.173 160.516 270.163 160.402 270.163 160.318C270.163 160.225 270.152 160.141 270.142 160.068C270.142 159.985 270.132 159.917 270.121 159.86C270.106 159.792 270.1 159.714 270.1 159.631C270.1 159.579 270.1 159.542 270.1 159.527C270.1 159.501 270.1 159.475 270.1 159.443V158.964C270.1 158.756 270.111 158.605 270.142 158.506C270.184 158.214 270.33 157.996 270.58 157.839C270.83 157.688 271.09 157.61 271.371 157.61C272.048 157.558 272.465 157.798 272.621 158.339C272.673 158.522 272.71 158.688 272.725 158.839C272.736 158.98 272.746 159.183 272.746 159.443C272.798 159.86 272.835 160.298 272.85 160.756C272.861 161.204 272.876 161.735 272.892 162.36C272.892 163.251 272.939 164.126 273.038 164.985C273.132 165.834 273.257 166.631 273.413 167.381C273.663 168.454 273.996 169.329 274.413 170.006C274.882 170.787 275.481 171.173 276.205 171.173C276.757 171.173 277.319 170.923 277.892 170.423C278.402 169.964 278.777 169.433 279.017 168.818C279.251 168.209 279.46 167.579 279.642 166.923C279.819 166.246 279.939 165.548 279.996 164.839C280.048 164.121 280.09 163.397 280.121 162.673V161.381C280.132 161.147 280.142 160.923 280.142 160.714C280.142 160.496 280.142 160.266 280.142 160.027C280.142 159.943 280.147 159.876 280.163 159.818C280.173 159.751 280.194 159.662 280.225 159.548C280.225 159.506 280.231 159.475 280.246 159.443C280.257 159.417 280.267 159.376 280.267 159.318C280.418 158.725 280.835 158.454 281.517 158.506C281.986 158.506 282.314 158.662 282.496 158.964C282.621 159.131 282.684 159.251 282.684 159.318C282.684 159.376 282.684 159.417 282.684 159.443C282.684 159.475 282.689 159.501 282.705 159.527C282.715 159.542 282.725 159.563 282.725 159.589C282.725 159.621 282.725 159.641 282.725 159.652C282.725 159.667 282.725 159.688 282.725 159.714V160.881C282.694 161.839 282.663 162.813 282.621 163.798C282.58 164.787 282.455 165.772 282.246 166.756C281.965 168.147 281.517 169.371 280.892 170.423C280.418 171.313 279.642 172.068 278.559 172.693C278.236 172.876 277.861 173.022 277.434 173.131C277.017 173.23 276.6 173.277 276.184 173.277Z"
        fill="white" />
    <path
        d="M293.754 174.631C293.015 174.631 292.557 174.298 292.379 173.631C292.348 173.548 292.338 173.443 292.338 173.318C292.338 172.667 292.307 171.902 292.254 171.027C292.213 170.141 292.161 169.214 292.109 168.256C292.051 167.131 292.004 166.022 291.963 164.923C291.932 163.813 291.921 162.881 291.921 162.131V161.068C291.921 160.766 291.775 160.641 291.484 160.693C290.317 160.818 289.536 160.912 289.15 160.964C288.76 161.006 288.525 161.027 288.442 161.027C287.744 161.027 287.281 160.772 287.046 160.256C286.963 160.131 286.921 160.001 286.921 159.86C286.921 159.402 287.182 159.027 287.713 158.735C287.921 158.641 288.135 158.568 288.359 158.527C288.593 158.485 288.817 158.454 289.025 158.423L292.421 158.068L294.171 157.839C294.379 157.813 294.781 157.756 295.379 157.673C295.973 157.579 296.598 157.496 297.254 157.423C297.906 157.339 298.4 157.287 298.734 157.256C299.859 157.173 300.421 157.548 300.421 158.381C300.421 158.98 300.051 159.35 299.317 159.485C298.619 159.584 297.921 159.693 297.213 159.818C296.515 159.933 295.817 160.048 295.109 160.173C294.869 160.204 294.754 160.334 294.754 160.568V162.485C294.754 163.11 294.775 163.871 294.817 164.756C294.859 165.631 294.906 166.563 294.963 167.548C295.015 168.537 295.057 169.48 295.088 170.381C295.129 171.272 295.15 172.027 295.15 172.652C295.15 172.709 295.156 172.756 295.171 172.798C295.182 172.829 295.192 172.871 295.192 172.923C295.192 172.954 295.192 172.975 295.192 172.985C295.192 173.001 295.192 173.022 295.192 173.048C295.192 173.147 295.182 173.246 295.171 173.339C295.156 173.423 295.135 173.537 295.109 173.673C295.036 174.308 294.588 174.631 293.754 174.631Z"
        fill="white" />
    <path
        d="M307.939 157.923C308.116 158.381 308.21 158.818 308.21 159.235V172.527C308.21 172.709 308.2 172.881 308.189 173.048C308.174 173.204 308.106 173.339 307.981 173.464C307.689 173.813 307.304 173.985 306.835 173.985C306.502 173.985 306.194 173.886 305.918 173.693C305.653 173.501 305.491 173.272 305.439 173.006C305.408 172.855 305.398 172.605 305.398 172.256L305.523 163.652C305.523 163.308 305.528 162.975 305.543 162.652C305.554 162.334 305.564 162.001 305.564 161.652C305.575 161.318 305.585 160.996 305.585 160.673C305.585 160.339 305.585 160.022 305.585 159.714V159.277C305.569 159.1 305.549 158.938 305.523 158.798C305.491 158.662 305.481 158.496 305.481 158.298V158.277C305.481 157.933 305.596 157.662 305.835 157.464C306.069 157.272 306.356 157.173 306.689 157.173C307.283 157.173 307.7 157.423 307.939 157.923Z"
        fill="white" />
    <path
        d="M321.254 174.485C319.822 174.485 318.572 174.152 317.504 173.485C316.447 172.808 315.619 171.86 315.025 170.652C314.426 169.443 314.129 168.048 314.129 166.464C314.129 164.537 314.551 162.792 315.4 161.235C316.244 159.683 317.369 158.548 318.775 157.839C319.369 157.506 319.962 157.329 320.546 157.298C321.129 157.272 321.837 157.287 322.671 157.339C325.087 157.438 326.9 158.298 328.108 159.923C329.317 161.548 329.775 163.73 329.483 166.464C329.358 167.881 329.03 169.188 328.504 170.381C327.988 171.563 327.16 172.516 326.025 173.235C324.9 173.954 323.306 174.371 321.254 174.485ZM321.379 172.068C323.322 171.985 324.681 171.423 325.462 170.381C326.254 169.329 326.65 167.667 326.65 165.402C326.65 163.527 326.244 162.105 325.442 161.131C324.65 160.162 323.514 159.673 322.046 159.673C320.947 159.673 320.03 160.022 319.296 160.714C318.556 161.397 317.994 162.266 317.608 163.318C317.233 164.376 317.046 165.459 317.046 166.568C317.046 168.235 317.421 169.568 318.171 170.568C318.931 171.568 320.004 172.068 321.379 172.068Z"
        fill="white" />
    <path
        d="M349.325 156.756C349.351 157.006 349.372 157.266 349.387 157.527C349.398 157.792 349.393 158.042 349.367 158.277C349.226 159.777 349.137 161.272 349.096 162.756C349.064 164.23 349.054 165.605 349.054 166.881V169.527C349.054 169.902 349.038 170.35 349.012 170.86C348.981 171.376 348.95 171.871 348.908 172.339C348.867 172.813 348.809 173.167 348.742 173.402C348.45 174.068 347.976 174.402 347.325 174.402C346.893 174.402 346.481 174.246 346.096 173.943C345.387 173.266 344.538 172.329 343.554 171.131C342.663 169.996 341.856 168.818 341.137 167.61C340.429 166.402 339.742 165.204 339.075 164.006C339.044 163.923 339.012 163.855 338.971 163.798C338.929 163.73 338.887 163.652 338.846 163.568C338.731 163.417 338.622 163.35 338.512 163.36C338.413 163.376 338.367 163.485 338.367 163.693V165.089C338.367 166.048 338.367 166.871 338.367 167.548C338.367 168.23 338.356 168.917 338.346 169.61C338.33 170.292 338.294 171.126 338.242 172.11C338.226 172.527 338.023 172.86 337.637 173.11C337.372 173.277 337.106 173.36 336.846 173.36C336.273 173.36 335.898 173.126 335.721 172.652C335.663 172.443 335.622 172.235 335.596 172.027C335.564 171.818 335.554 171.537 335.554 171.173C335.606 170.162 335.648 169.131 335.679 168.089C335.705 167.048 335.721 166.006 335.721 164.964C335.721 164.756 335.71 164.423 335.7 163.964C335.684 163.496 335.663 162.996 335.637 162.464C335.606 161.923 335.585 161.459 335.575 161.068C335.559 160.683 335.554 160.475 335.554 160.443C335.554 159.876 335.606 159.423 335.721 159.089C335.788 158.73 335.976 158.438 336.283 158.214C336.585 157.996 336.939 157.881 337.346 157.881C337.637 157.881 337.939 157.954 338.262 158.089C338.596 158.214 338.825 158.381 338.95 158.589C339.268 159.079 339.575 159.548 339.867 160.006C340.169 160.464 340.45 160.912 340.7 161.339L342.075 163.693C342.669 164.735 343.314 165.766 344.012 166.777C344.721 167.777 345.314 168.662 345.804 169.423C345.913 169.579 346.012 169.631 346.096 169.589C346.189 169.548 346.252 169.438 346.283 169.256C346.309 168.563 346.325 167.959 346.325 167.443C346.325 166.917 346.325 166.417 346.325 165.943C346.325 165.318 346.33 164.693 346.346 164.068C346.356 163.443 346.377 162.829 346.408 162.214C346.419 161.772 346.434 161.334 346.45 160.902C346.46 160.475 346.471 160.048 346.471 159.631C346.497 159.246 346.518 158.86 346.533 158.485C346.544 158.11 346.554 157.73 346.554 157.339C346.554 157.204 346.575 157.048 346.617 156.881C346.669 156.714 346.7 156.621 346.7 156.589C346.908 155.996 347.367 155.693 348.075 155.693C348.408 155.693 348.689 155.792 348.929 155.985C349.163 156.183 349.294 156.438 349.325 156.756Z"
        fill="white" />
    <path
        d="M317.74 91.4372C322.208 102.625 325.177 117.771 321.328 132.333H347.01C347.495 125.854 347.745 115.38 345.828 104.427C342.932 87.8539 335.917 72.6352 326.396 58.8956C323.557 54.8122 320.589 50.9737 320.297 45.8018C319.901 38.9633 322.839 30.3487 329.943 28.3227C332.943 27.4685 336.771 27.2654 339.63 28.4425C343.854 30.1768 348.193 32.9841 352.906 31.3591C357.13 29.906 361.073 25.9893 361.693 21.4581C362.438 15.9841 359.682 10.656 355.698 7.20287C353.083 4.93724 349.938 3.18203 346.906 2.05183C336.63 -1.7763 325.219 0.0518265 315.911 5.05703C300.052 13.5883 291.776 31.9581 295.313 47.9841C298.854 64.0154 312.885 79.281 317.74 91.4372Z"
        fill="black" />
    <path
        d="M262.818 40.4008C259.589 41.2237 256.49 43.3748 253.818 45.5675C247.484 50.7654 241.484 56.7237 235.151 61.9269C233.547 63.2446 231.906 64.5831 230 65.2498C226.094 66.6196 221.953 64.9269 217.938 64.1039C214.146 63.3227 205.641 63.0883 203.484 63.0414C201.318 63.0883 192.818 63.3227 189.026 64.1039C185.01 64.9269 180.865 66.6196 176.958 65.2498C175.063 64.5831 173.417 63.2446 171.813 61.9269C165.479 56.7237 159.479 50.7654 153.146 45.5675C150.474 43.3748 147.37 41.2237 144.141 40.4008C131.13 37.0935 132.912 57.9008 134.859 66.0519C136.526 73.0258 140.677 79.8487 141.287 87.0206C141.427 88.6925 133.5 105.458 138.005 131.838C138.063 132.161 170.505 132.328 203.484 132.333C236.453 132.328 268.901 132.161 268.953 131.838C273.458 105.458 265.531 88.6925 265.672 87.0206C266.281 79.8487 270.438 73.0258 272.104 66.0519C274.052 57.9008 275.828 37.0935 262.818 40.4008Z"
        fill="black" />
    <path
        d="M237.281 124.297C244.453 120.442 246.25 109.838 246.25 109.838C246.25 109.838 236.417 105.474 229.24 109.323C222.068 113.177 220.271 123.786 220.271 123.786C220.271 123.786 230.104 128.151 237.281 124.297Z"
        fill="#61B95E" />
    <path
        d="M236.661 116.906C236.547 121.349 232.87 124.859 232.87 124.859C232.87 124.859 229.385 121.161 229.505 116.713C229.62 112.271 233.297 108.76 233.297 108.76C233.297 108.76 236.781 112.458 236.661 116.906Z"
        fill="black" />
    <path
        d="M169.682 124.297C162.505 120.442 160.708 109.838 160.708 109.838C160.708 109.838 170.547 105.474 177.719 109.323C184.896 113.177 186.693 123.786 186.693 123.786C186.693 123.786 176.854 128.151 169.682 124.297Z"
        fill="#61B95E" />
    <path
        d="M170.25 116.906C170.37 121.411 174.094 124.969 174.094 124.969C174.094 124.969 177.625 121.219 177.505 116.713C177.385 112.208 173.662 108.646 173.662 108.646C173.662 108.646 170.13 112.396 170.25 116.906Z"
        fill="black" />
    <mask id="mask3_2027_300" style="mask-type:luminance" maskUnits="userSpaceOnUse" x="87" y="120"
        width="52" height="35">
        <path d="M87.0105 120.828H138.667V154.161H87.0105V120.828Z" fill="white" />
    </mask>
    <g mask="url(#mask3_2027_300)">
        <path
            d="M132.818 130.937C130.938 125.745 122.75 121.536 112.745 121.052C101.839 120.521 92.6511 124.599 91.3126 130.323C89.1563 132.328 87.7084 135.302 87.547 138.682C87.2345 145.047 91.5522 150.422 97.1876 150.698C99.6303 150.817 101.912 149.953 103.75 148.427C105.412 151.698 108.464 153.963 112.068 154.135C115.542 154.302 118.698 152.489 120.682 149.588C122.307 151.073 124.349 152.015 126.604 152.12C132.245 152.396 137.063 147.458 137.37 141.099C137.578 136.87 135.729 133.088 132.818 130.937Z"
            fill="black" />
    </g>
    <path
        d="M274.141 130.937C276.026 125.745 284.208 121.536 294.219 121.052C305.125 120.521 314.307 124.599 315.651 130.323C317.807 132.328 319.255 135.302 319.422 138.682C319.729 145.047 315.406 150.422 309.771 150.698C307.333 150.817 305.047 149.953 303.214 148.427C301.552 151.698 298.495 153.963 294.896 154.135C291.422 154.302 288.266 152.489 286.276 149.588C284.651 151.073 282.615 152.015 280.354 152.12C274.719 152.396 269.901 147.458 269.589 141.099C269.385 136.87 271.229 133.088 274.141 130.937Z"
        fill="black" />
</svg>