<svg width="434" height="222" viewBox="0 0 434 222" fill="none" xmlns="http://www.w3.org/2000/svg">
<mask id="mask0_2017_326" style="mask-type:luminance" maskUnits="userSpaceOnUse" x="343" y="153" width="91" height="69">
<path d="M343 153.333H433.667V221.089H343V153.333Z" fill="white"/>
</mask>
<g mask="url(#mask0_2017_326)">
<path d="M372.505 153.406V206.13L344.203 221.073H433.021L414.542 187.245L433.021 153.406H372.505Z" fill="black"/>
</g>
<path d="M335.901 206.703V218.875L358.969 206.703H335.901Z" fill="black"/>
<mask id="mask1_2017_326" style="mask-type:luminance" maskUnits="userSpaceOnUse" x="65" y="133" width="302" height="69">
<path d="M65.6667 133.089H367V201.333H65.6667V133.089Z" fill="white"/>
</mask>
<g mask="url(#mask1_2017_326)">
<path d="M366.672 133.115H66.7448V200.885H366.672V133.115Z" fill="black"/>
</g>
<mask id="mask2_2017_326" style="mask-type:luminance" maskUnits="userSpaceOnUse" x="0" y="153" width="91" height="69">
<path d="M0.333313 153.333H91V221.089H0.333313V153.333Z" fill="white"/>
</mask>
<g mask="url(#mask2_2017_326)">
<path d="M60.9166 206.703V153.406L1.28644 153.422L19.7656 187.245L1.30206 221.089L90.0833 221.063L60.9166 206.703Z" fill="black"/>
</g>
<path d="M98.4791 218.87L98.5677 206.703H75.0521L98.4791 218.87Z" fill="black"/>
<path d="M91.1919 177.178C87.9003 177.037 85.3482 176.095 83.5461 174.345C81.7388 172.595 80.8378 170.178 80.8378 167.095C80.8378 164.985 81.3378 163.053 82.3378 161.303C83.3378 159.553 84.6919 158.147 86.4003 157.074C88.119 156.006 90.0149 155.449 92.0878 155.407C92.9211 155.366 93.7857 155.522 94.6919 155.866C95.6086 156.199 96.3846 156.61 97.0253 157.095C97.6763 157.584 98.0044 158.074 98.0044 158.574C98.0044 158.965 97.8013 159.324 97.4003 159.657C97.0096 159.98 96.5878 160.136 96.1294 160.136C95.8794 160.136 95.6503 160.105 95.4419 160.032C95.244 159.949 95.0565 159.876 94.8794 159.803C94.6711 159.694 94.4888 159.59 94.3378 159.491C94.1971 159.381 94.0253 159.256 93.8169 159.116C93.4524 158.897 92.9524 158.782 92.3169 158.782C90.9107 158.782 89.6503 159.147 88.5253 159.866C87.4003 160.574 86.494 161.569 85.8169 162.845C85.1346 164.11 84.7596 165.548 84.6919 167.157C84.6919 169.298 85.244 170.98 86.3586 172.199C87.468 173.423 88.968 174.032 90.8586 174.032C92.468 174.032 93.8065 173.511 94.8794 172.47C95.0982 172.293 95.2805 172.131 95.4211 171.991C95.5565 171.84 95.6711 171.73 95.7544 171.657C95.9211 171.407 96.119 171.215 96.3586 171.074C96.593 170.938 96.9055 170.866 97.2961 170.866C97.7961 170.866 98.2232 171.011 98.5878 171.303C98.9471 171.584 99.1294 171.949 99.1294 172.407C99.1294 173.157 98.6971 173.902 97.8378 174.636C96.9732 175.376 95.9263 175.991 94.6919 176.491C93.4524 176.991 92.2857 177.22 91.1919 177.178Z" fill="white"/>
<path d="M121.8 176.657C120.842 176.657 120.217 176.157 119.925 175.157C119.717 174.48 119.535 173.803 119.384 173.136C119.243 172.47 119.082 171.798 118.905 171.116L118.696 170.324C118.623 169.965 118.431 169.819 118.113 169.886C116.821 170.11 115.53 170.293 114.238 170.428C112.957 170.569 111.655 170.626 110.321 170.595C110.04 170.595 109.826 170.72 109.675 170.97C109.326 171.751 108.998 172.48 108.696 173.157C108.389 173.84 108.113 174.428 107.863 174.928C107.389 175.928 106.655 176.428 105.655 176.428C104.655 176.428 104.165 176.069 104.196 175.345C104.238 174.61 104.509 173.616 105.009 172.366C106.368 169.188 107.644 166.334 108.842 163.803C110.05 161.277 110.936 159.48 111.509 158.407C113.118 155.438 114.55 153.949 115.8 153.949C116.41 153.949 116.967 154.194 117.467 154.678C117.967 155.168 118.405 155.756 118.78 156.449C119.155 157.147 119.477 157.855 119.759 158.574C120.259 160.048 120.727 161.72 121.175 163.595C121.634 165.47 122.056 167.272 122.446 168.991C122.847 170.699 123.186 172.053 123.467 173.053C123.535 173.418 123.597 173.741 123.655 174.032C123.707 174.313 123.738 174.595 123.738 174.886C123.738 176.069 123.092 176.657 121.8 176.657ZM111.342 166.616C111.16 167.048 111.306 167.261 111.78 167.261C112.738 167.235 113.686 167.157 114.634 167.032C115.592 166.897 116.55 166.756 117.509 166.616C117.868 166.548 118.014 166.334 117.946 165.97C117.696 164.834 117.41 163.631 117.092 162.366C116.769 161.09 116.352 159.881 115.842 158.741C115.743 158.522 115.582 158.459 115.363 158.553C115.155 158.636 114.957 158.86 114.78 159.22C113.988 160.761 113.311 162.152 112.759 163.386C112.201 164.61 111.727 165.688 111.342 166.616Z" fill="white"/>
<path d="M136.973 177.928C135.973 177.928 135.348 177.47 135.098 176.553C135.066 176.444 135.056 176.298 135.056 176.116C135.056 175.23 135.014 174.173 134.931 172.949C134.858 171.73 134.79 170.459 134.723 169.136C134.65 167.595 134.587 166.069 134.535 164.553C134.478 163.043 134.452 161.761 134.452 160.72V159.261C134.452 158.845 134.254 158.673 133.868 158.741C132.254 158.923 131.181 159.048 130.639 159.116C130.108 159.189 129.79 159.22 129.681 159.22C128.723 159.22 128.077 158.86 127.743 158.136C127.645 157.959 127.598 157.782 127.598 157.616C127.598 156.965 127.952 156.444 128.66 156.053C128.952 155.918 129.254 155.819 129.577 155.761C129.895 155.709 130.202 155.657 130.493 155.616L135.16 155.136L137.577 154.824C137.853 154.782 138.4 154.699 139.223 154.574C140.056 154.449 140.915 154.34 141.806 154.241C142.691 154.131 143.374 154.053 143.848 154.011C145.389 153.902 146.16 154.423 146.16 155.574C146.16 156.397 145.66 156.897 144.66 157.074C143.686 157.215 142.712 157.366 141.743 157.532C140.785 157.689 139.816 157.855 138.848 158.032C138.525 158.074 138.368 158.256 138.368 158.574V161.199C138.368 162.064 138.395 163.105 138.452 164.324C138.504 165.532 138.566 166.819 138.639 168.178C138.707 169.543 138.77 170.84 138.827 172.074C138.879 173.298 138.91 174.34 138.91 175.199C138.91 175.272 138.915 175.334 138.931 175.386C138.957 175.444 138.973 175.506 138.973 175.574C138.973 175.616 138.973 175.647 138.973 175.657C138.973 175.673 138.973 175.699 138.973 175.741C138.973 175.881 138.957 176.011 138.931 176.136C138.915 176.261 138.889 176.418 138.848 176.595C138.749 177.48 138.124 177.928 136.973 177.928Z" fill="white"/>
<path d="M183.684 176.657C182.725 176.657 182.1 176.157 181.809 175.157C181.6 174.48 181.418 173.803 181.267 173.136C181.127 172.47 180.965 171.798 180.788 171.116L180.58 170.324C180.507 169.965 180.314 169.819 179.996 169.886C178.705 170.11 177.413 170.293 176.121 170.428C174.84 170.569 173.538 170.626 172.205 170.595C171.923 170.595 171.71 170.72 171.559 170.97C171.21 171.751 170.882 172.48 170.58 173.157C170.272 173.84 169.996 174.428 169.746 174.928C169.272 175.928 168.538 176.428 167.538 176.428C166.538 176.428 166.048 176.069 166.08 175.345C166.121 174.61 166.392 173.616 166.892 172.366C168.252 169.188 169.528 166.334 170.725 163.803C171.934 161.277 172.819 159.48 173.392 158.407C175.002 155.438 176.434 153.949 177.684 153.949C178.293 153.949 178.85 154.194 179.35 154.678C179.85 155.168 180.288 155.756 180.663 156.449C181.038 157.147 181.361 157.855 181.642 158.574C182.142 160.048 182.611 161.72 183.059 163.595C183.517 165.47 183.939 167.272 184.33 168.991C184.731 170.699 185.069 172.053 185.35 173.053C185.418 173.418 185.481 173.741 185.538 174.032C185.59 174.313 185.621 174.595 185.621 174.886C185.621 176.069 184.975 176.657 183.684 176.657ZM173.225 166.616C173.043 167.048 173.189 167.261 173.663 167.261C174.621 167.235 175.569 167.157 176.517 167.032C177.475 166.897 178.434 166.756 179.392 166.616C179.752 166.548 179.897 166.334 179.83 165.97C179.58 164.834 179.293 163.631 178.975 162.366C178.653 161.09 178.236 159.881 177.725 158.741C177.627 158.522 177.465 158.459 177.246 158.553C177.038 158.636 176.84 158.86 176.663 159.22C175.871 160.761 175.194 162.152 174.642 163.386C174.085 164.61 173.611 165.688 173.225 166.616Z" fill="white"/>
<path d="M195.648 176.178C194.033 176.178 193.137 175.298 192.96 173.532C192.96 173.465 192.939 173.235 192.898 172.845C192.866 172.459 192.825 172.053 192.773 171.636C192.715 171.22 192.689 170.944 192.689 170.803L192.752 167.053C192.752 166.126 192.71 165.209 192.627 164.303C192.554 163.386 192.471 162.48 192.377 161.574C192.262 160.574 192.153 159.819 192.044 159.303C191.945 158.777 191.856 158.324 191.773 157.949C191.7 157.574 191.669 157.136 191.669 156.636C191.669 156.209 191.835 155.866 192.169 155.616C192.512 155.366 192.939 155.241 193.439 155.241C193.866 155.215 194.283 155.194 194.689 155.178C195.106 155.152 195.528 155.136 195.96 155.136C197.429 155.136 198.882 155.251 200.314 155.47C201.741 155.678 203.116 156.032 204.439 156.532C206.158 157.215 207.507 158.173 208.481 159.407C209.465 160.647 209.96 162.105 209.96 163.782C210.002 165.715 209.502 167.449 208.46 168.991C207.429 170.522 205.95 171.86 204.023 173.011C202.981 173.61 201.882 174.152 200.731 174.636C199.59 175.126 198.398 175.563 197.148 175.949C196.898 175.991 196.648 176.043 196.398 176.095C196.148 176.152 195.898 176.178 195.648 176.178ZM196.564 172.032C196.632 172.438 196.84 172.584 197.189 172.47C198.09 172.22 198.924 171.918 199.689 171.553C200.465 171.194 201.241 170.782 202.023 170.324C204.741 168.715 206.106 166.48 206.106 163.616C206.106 161.824 205.231 160.522 203.481 159.699C201.507 158.699 199.127 158.215 196.335 158.241C195.945 158.241 195.783 158.444 195.856 158.845C196.148 160.595 196.325 162.386 196.398 164.22C196.465 166.043 196.523 167.86 196.564 169.678C196.564 170.069 196.564 170.465 196.564 170.866C196.564 171.256 196.564 171.647 196.564 172.032Z" fill="white"/>
<path d="M225.464 177.72C223.49 177.72 221.766 177.251 220.298 176.324C218.839 175.397 217.699 174.105 216.881 172.449C216.058 170.782 215.652 168.86 215.652 166.678C215.652 164.027 216.225 161.631 217.381 159.491C218.548 157.34 220.094 155.782 222.027 154.824C222.844 154.355 223.657 154.105 224.464 154.074C225.266 154.032 226.245 154.048 227.402 154.116C230.719 154.272 233.214 155.465 234.881 157.699C236.548 159.923 237.178 162.918 236.777 166.678C236.594 168.636 236.141 170.438 235.423 172.074C234.714 173.699 233.579 175.011 232.027 176.011C230.469 177.011 228.282 177.579 225.464 177.72ZM225.631 174.407C228.308 174.298 230.183 173.522 231.256 172.074C232.324 170.616 232.86 168.334 232.86 165.22C232.86 162.652 232.308 160.699 231.214 159.366C230.131 158.022 228.568 157.345 226.527 157.345C225.027 157.345 223.761 157.819 222.735 158.761C221.719 159.709 220.954 160.907 220.443 162.366C219.928 163.813 219.673 165.298 219.673 166.824C219.673 169.116 220.183 170.959 221.214 172.345C222.256 173.72 223.725 174.407 225.631 174.407Z" fill="white"/>
<path d="M247.977 177.678C247.519 177.636 247.113 177.475 246.769 177.199C246.436 176.933 246.233 176.631 246.165 176.282C246.123 175.881 246.05 175.131 245.957 174.032C245.873 172.923 245.795 171.657 245.727 170.241C245.654 168.824 245.587 167.428 245.519 166.053C245.446 164.678 245.384 163.48 245.332 162.449C245.274 161.407 245.248 160.72 245.248 160.386V156.97C245.248 155.819 245.295 154.86 245.394 154.095C245.503 153.334 245.957 152.876 246.748 152.72C247.358 152.652 247.8 152.709 248.082 152.886C248.373 153.069 248.608 153.298 248.79 153.574C248.925 153.798 249.144 153.907 249.436 153.907C249.962 153.84 250.509 153.798 251.082 153.782C251.665 153.756 252.186 153.741 252.644 153.741C255.404 153.881 257.644 154.689 259.352 156.157C261.071 157.631 261.936 159.459 261.936 161.636C261.936 163.136 261.441 164.532 260.457 165.824C259.467 167.105 258.102 168.194 256.352 169.095C254.602 169.985 252.561 170.626 250.227 171.011C249.878 171.053 249.717 171.235 249.748 171.553C249.79 172.053 249.832 172.694 249.873 173.47C249.925 174.235 249.998 174.923 250.082 175.532C250.082 175.782 250.061 175.959 250.019 176.053C249.977 176.209 249.946 176.319 249.936 176.386C249.92 176.459 249.894 176.548 249.852 176.657C249.712 176.975 249.462 177.23 249.102 177.428C248.753 177.621 248.378 177.704 247.977 177.678ZM249.436 167.324C249.462 167.673 249.675 167.814 250.082 167.741C251.467 167.465 252.779 167.053 254.019 166.511C255.253 165.97 256.253 165.293 257.019 164.47C257.779 163.652 258.165 162.709 258.165 161.636C258.165 160.235 257.571 159.09 256.394 158.199C255.227 157.314 253.712 156.866 251.852 156.866C251.488 156.866 251.108 156.886 250.707 156.928C250.316 156.959 249.925 157.006 249.54 157.074C249.29 157.105 249.128 157.282 249.061 157.616C249.019 158.439 248.998 159.485 248.998 160.761C248.998 162.027 249.04 163.272 249.123 164.491C249.217 165.699 249.321 166.647 249.436 167.324Z" fill="white"/>
<path d="M275.486 177.928C274.486 177.928 273.861 177.47 273.611 176.553C273.58 176.444 273.57 176.298 273.57 176.116C273.57 175.23 273.528 174.173 273.445 172.949C273.372 171.73 273.304 170.459 273.236 169.136C273.163 167.595 273.101 166.069 273.049 164.553C272.992 163.043 272.965 161.761 272.965 160.72V159.261C272.965 158.845 272.768 158.673 272.382 158.741C270.768 158.923 269.695 159.048 269.153 159.116C268.622 159.189 268.304 159.22 268.195 159.22C267.236 159.22 266.59 158.86 266.257 158.136C266.158 157.959 266.111 157.782 266.111 157.616C266.111 156.965 266.465 156.444 267.174 156.053C267.465 155.918 267.768 155.819 268.09 155.761C268.408 155.709 268.715 155.657 269.007 155.616L273.674 155.136L276.09 154.824C276.367 154.782 276.913 154.699 277.736 154.574C278.57 154.449 279.429 154.34 280.32 154.241C281.205 154.131 281.887 154.053 282.361 154.011C283.903 153.902 284.674 154.423 284.674 155.574C284.674 156.397 284.174 156.897 283.174 157.074C282.2 157.215 281.226 157.366 280.257 157.532C279.299 157.689 278.33 157.855 277.361 158.032C277.038 158.074 276.882 158.256 276.882 158.574V161.199C276.882 162.064 276.908 163.105 276.965 164.324C277.018 165.532 277.08 166.819 277.153 168.178C277.221 169.543 277.283 170.84 277.34 172.074C277.393 173.298 277.424 174.34 277.424 175.199C277.424 175.272 277.429 175.334 277.445 175.386C277.471 175.444 277.486 175.506 277.486 175.574C277.486 175.616 277.486 175.647 277.486 175.657C277.486 175.673 277.486 175.699 277.486 175.741C277.486 175.881 277.471 176.011 277.445 176.136C277.429 176.261 277.403 176.418 277.361 176.595C277.262 177.48 276.637 177.928 275.486 177.928Z" fill="white"/>
<path d="M295.006 154.928C295.256 155.569 295.381 156.173 295.381 156.741V175.032C295.381 175.282 295.37 175.522 295.36 175.741C295.344 175.949 295.245 176.147 295.068 176.324C294.678 176.798 294.157 177.032 293.506 177.032C293.047 177.032 292.631 176.897 292.256 176.636C291.881 176.36 291.652 176.043 291.568 175.678C291.537 175.47 291.527 175.131 291.527 174.657L291.693 162.803C291.693 162.345 291.698 161.897 291.714 161.449C291.725 161.006 291.735 160.548 291.735 160.074C291.777 159.616 291.797 159.168 291.797 158.72C291.797 158.261 291.797 157.819 291.797 157.386V156.803C291.756 156.553 291.714 156.334 291.672 156.136C291.641 155.944 291.631 155.72 291.631 155.47V155.407C291.631 154.949 291.787 154.59 292.11 154.324C292.428 154.048 292.823 153.907 293.297 153.907C294.115 153.907 294.683 154.251 295.006 154.928Z" fill="white"/>
<path d="M313.356 177.72C311.382 177.72 309.658 177.251 308.189 176.324C306.731 175.397 305.59 174.105 304.772 172.449C303.949 170.782 303.543 168.86 303.543 166.678C303.543 164.027 304.116 161.631 305.272 159.491C306.439 157.34 307.986 155.782 309.918 154.824C310.736 154.355 311.548 154.105 312.356 154.074C313.158 154.032 314.137 154.048 315.293 154.116C318.611 154.272 321.106 155.465 322.772 157.699C324.439 159.923 325.069 162.918 324.668 166.678C324.486 168.636 324.033 170.438 323.314 172.074C322.606 173.699 321.47 175.011 319.918 176.011C318.361 177.011 316.173 177.579 313.356 177.72ZM313.522 174.407C316.199 174.298 318.074 173.522 319.147 172.074C320.215 170.616 320.752 168.334 320.752 165.22C320.752 162.652 320.199 160.699 319.106 159.366C318.022 158.022 316.46 157.345 314.418 157.345C312.918 157.345 311.653 157.819 310.627 158.761C309.611 159.709 308.845 160.907 308.335 162.366C307.819 163.813 307.564 165.298 307.564 166.824C307.564 169.116 308.074 170.959 309.106 172.345C310.147 173.72 311.616 174.407 313.522 174.407Z" fill="white"/>
<path d="M351.973 153.324C351.999 153.673 352.02 154.027 352.036 154.386C352.062 154.751 352.056 155.09 352.015 155.407C351.832 157.48 351.713 159.532 351.661 161.574C351.619 163.616 351.598 165.511 351.598 167.261V170.907C351.598 171.407 351.577 172.022 351.536 172.741C351.504 173.449 351.463 174.131 351.411 174.782C351.353 175.423 351.27 175.902 351.161 176.22C350.77 177.147 350.124 177.616 349.223 177.616C348.624 177.616 348.056 177.397 347.515 176.97C346.541 176.043 345.379 174.756 344.036 173.116C342.812 171.532 341.707 169.918 340.723 168.261C339.733 166.595 338.775 164.944 337.848 163.303C337.817 163.194 337.775 163.095 337.723 163.011C337.666 162.918 337.603 162.814 337.536 162.699C337.395 162.491 337.249 162.397 337.098 162.407C336.957 162.423 336.89 162.574 336.89 162.866V164.803C336.89 166.126 336.89 167.251 336.89 168.178C336.89 169.11 336.879 170.048 336.869 170.991C336.853 171.939 336.806 173.09 336.723 174.449C336.692 175.022 336.411 175.485 335.869 175.845C335.504 176.069 335.15 176.178 334.806 176.178C334.015 176.178 333.494 175.855 333.244 175.199C333.171 174.923 333.119 174.636 333.077 174.345C333.046 174.053 333.036 173.657 333.036 173.157C333.103 171.772 333.15 170.36 333.181 168.928C333.223 167.501 333.244 166.069 333.244 164.636C333.244 164.345 333.228 163.881 333.202 163.241C333.187 162.605 333.161 161.918 333.119 161.178C333.088 160.444 333.067 159.814 333.056 159.282C333.041 158.741 333.036 158.449 333.036 158.407C333.036 157.631 333.103 157.006 333.244 156.532C333.353 156.032 333.608 155.631 334.015 155.324C334.431 155.022 334.921 154.866 335.494 154.866C335.895 154.866 336.317 154.959 336.765 155.136C337.207 155.319 337.52 155.553 337.702 155.845C338.129 156.527 338.546 157.178 338.952 157.803C339.369 158.428 339.754 159.043 340.119 159.636L341.994 162.866C342.812 164.298 343.702 165.715 344.661 167.116C345.629 168.506 346.457 169.715 347.14 170.741C347.275 170.965 347.411 171.048 347.536 170.991C347.661 170.939 347.744 170.782 347.786 170.532C347.812 169.574 347.827 168.741 347.827 168.032C347.827 167.314 347.827 166.626 347.827 165.97C347.827 165.11 347.832 164.256 347.848 163.407C347.874 162.548 347.911 161.689 347.952 160.824C347.978 160.215 347.999 159.616 348.015 159.032C348.041 158.439 348.056 157.855 348.056 157.282C348.082 156.756 348.103 156.235 348.119 155.72C348.145 155.194 348.161 154.657 348.161 154.116C348.161 153.939 348.192 153.735 348.265 153.511C348.332 153.277 348.369 153.136 348.369 153.095C348.661 152.277 349.286 151.866 350.244 151.866C350.713 151.866 351.108 152.006 351.431 152.282C351.749 152.548 351.931 152.897 351.973 153.324Z" fill="white"/>
<path d="M318.073 91.9427C322.542 103.13 325.51 118.276 321.661 132.839H347.344C347.828 126.359 348.078 115.885 346.161 104.932C343.266 88.3594 336.25 73.1407 326.729 59.4011C323.891 55.3177 320.922 51.4792 320.63 46.3073C320.234 39.4688 323.172 30.8542 330.276 28.8282C333.276 27.974 337.104 27.7709 339.964 28.9479C344.188 30.6823 348.526 33.4896 353.24 31.8646C357.464 30.4115 361.406 26.4948 362.026 21.9636C362.771 16.4896 360.016 11.1615 356.031 7.70836C353.417 5.44274 350.271 3.68753 347.24 2.55732C336.964 -1.27081 325.552 0.55732 316.245 5.56253C300.385 14.0938 292.109 32.4636 295.646 48.4896C299.187 64.5209 313.219 79.7865 318.073 91.9427Z" fill="black"/>
<path d="M263.151 40.9063C259.922 41.7292 256.823 43.8802 254.151 46.0729C247.818 51.2708 241.818 57.2292 235.484 62.4323C233.88 63.75 232.24 65.0885 230.333 65.7552C226.427 67.125 222.286 65.4323 218.271 64.6094C214.479 63.8281 205.974 63.5938 203.818 63.5469C201.651 63.5938 193.151 63.8281 189.359 64.6094C185.344 65.4323 181.198 67.125 177.292 65.7552C175.396 65.0885 173.75 63.75 172.146 62.4323C165.812 57.2292 159.812 51.2708 153.479 46.0729C150.807 43.8802 147.703 41.7292 144.474 40.9063C131.464 37.599 133.245 58.4063 135.193 66.5573C136.859 73.5313 141.01 80.3542 141.62 87.526C141.76 89.1979 133.833 105.964 138.339 132.344C138.396 132.667 170.839 132.833 203.818 132.839C236.786 132.833 269.234 132.667 269.286 132.344C273.792 105.964 265.865 89.1979 266.005 87.526C266.615 80.3542 270.771 73.5313 272.437 66.5573C274.385 58.4063 276.161 37.599 263.151 40.9063Z" fill="black"/>
<path d="M237.615 124.802C244.786 120.948 246.583 110.344 246.583 110.344C246.583 110.344 236.75 105.979 229.573 109.828C222.401 113.682 220.604 124.292 220.604 124.292C220.604 124.292 230.438 128.656 237.615 124.802Z" fill="#61B95E"/>
<path d="M236.995 117.411C236.88 121.854 233.203 125.365 233.203 125.365C233.203 125.365 229.719 121.667 229.839 117.219C229.953 112.776 233.63 109.266 233.63 109.266C233.63 109.266 237.115 112.964 236.995 117.411Z" fill="black"/>
<path d="M170.016 124.802C162.839 120.948 161.042 110.344 161.042 110.344C161.042 110.344 170.88 105.979 178.052 109.828C185.229 113.682 187.026 124.292 187.026 124.292C187.026 124.292 177.188 128.656 170.016 124.802Z" fill="#61B95E"/>
<path d="M170.583 117.411C170.703 121.917 174.427 125.474 174.427 125.474C174.427 125.474 177.958 121.724 177.839 117.219C177.719 112.714 173.995 109.151 173.995 109.151C173.995 109.151 170.464 112.901 170.583 117.411Z" fill="black"/>
<mask id="mask3_2017_326" style="mask-type:luminance" maskUnits="userSpaceOnUse" x="87" y="121" width="52" height="34">
<path d="M87.3438 121.333H139V154.667H87.3438V121.333Z" fill="white"/>
</mask>
<g mask="url(#mask3_2017_326)">
<path d="M133.151 131.443C131.271 126.25 123.083 122.042 113.078 121.557C102.172 121.026 92.9844 125.104 91.6458 130.828C89.4896 132.833 88.0417 135.807 87.8802 139.188C87.5677 145.552 91.8854 150.927 97.5208 151.203C99.9635 151.323 102.245 150.458 104.083 148.932C105.745 152.203 108.797 154.469 112.401 154.641C115.875 154.807 119.031 152.995 121.016 150.094C122.641 151.578 124.682 152.521 126.937 152.625C132.578 152.901 137.396 147.964 137.703 141.604C137.911 137.375 136.063 133.594 133.151 131.443Z" fill="black"/>
</g>
<path d="M274.474 131.443C276.359 126.25 284.542 122.042 294.552 121.557C305.458 121.026 314.641 125.104 315.984 130.828C318.141 132.833 319.589 135.807 319.755 139.188C320.062 145.552 315.74 150.927 310.104 151.203C307.667 151.323 305.38 150.458 303.547 148.932C301.885 152.203 298.828 154.469 295.229 154.641C291.755 154.807 288.599 152.995 286.609 150.094C284.984 151.578 282.948 152.521 280.687 152.625C275.052 152.901 270.234 147.964 269.922 141.604C269.719 137.375 271.562 133.594 274.474 131.443Z" fill="black"/>
</svg>
